<svg id="Capa_1" enable-background="new 0 0 512 512" height="512" viewBox="0 0 512 512" width="512" xmlns="http://www.w3.org/2000/svg"><g><g><path d="m446.045 381.694h-380.089c-19.728 0-35.721-15.993-35.721-35.721 0-19.728 15.993-35.721 35.721-35.721l190.044-35.721 190.045 35.721c19.728 0 35.721 15.993 35.721 35.721-.001 19.728-15.993 35.721-35.721 35.721z" fill="#e7886e"/></g><g><path d="m168.779 345.973c0-19.728 15.993-35.721 35.721-35.721v-33.251l-138.544 33.251c-19.728 0-35.721 15.993-35.721 35.721 0 19.728 15.993 35.721 35.721 35.721h138.544c-19.728 0-35.721-15.993-35.721-35.721z" fill="#e27858"/></g><g><path d="m440.558 465.043h-369.116c-39.456 0-71.442-31.986-71.442-71.442 0-13.152 10.662-23.814 23.814-23.814h464.372c13.152 0 23.814 10.662 23.814 23.814 0 39.456-31.986 71.442-71.442 71.442z" fill="#ffca8a"/></g><g><path d="m103.018 393.601c0-13.152 10.662-23.814 23.814-23.814h-103.018c-13.152 0-23.814 10.662-23.814 23.814 0 39.456 31.986 71.442 71.442 71.442h103.018c-39.456 0-71.442-31.986-71.442-71.442z" fill="#ffbe73"/></g><g><path d="m112.049 262.624s74.371 161.946 143.945 161.946 143.957-161.946 143.957-161.946z" fill="#f9ed80"/></g><g><path d="m446.045 310.252h-380.089c-19.728 0-35.721-15.993-35.721-35.721 0-19.728 15.993-35.721 35.721-35.721h380.089c19.728 0 35.721 15.993 35.721 35.721-.001 19.728-15.993 35.721-35.721 35.721z" fill="#ff6f7f"/></g><g><path d="m168.779 274.531c0-19.728 15.993-35.721 35.721-35.721h-138.544c-19.728 0-35.721 15.993-35.721 35.721 0 19.728 15.993 35.721 35.721 35.721h138.544c-19.728 0-35.721-15.993-35.721-35.721z" fill="#fc5c70"/></g><g><path d="m470.326 244.561c0 10.845-10.916 18.407-21.003 14.424-16.894-6.67-23.536-20.174-50.434-20.174-35.719 0-35.719 23.814-71.438 23.814-35.721 0-35.721-23.814-71.441-23.814-35.719 0-35.719 23.814-71.439 23.814-35.724 0-35.724-23.814-71.449-23.814-26.904 0-33.547 13.507-50.446 20.176-10.087 3.981-21.002-3.58-21.002-14.425v-.001c0-36.056 29.229-65.285 65.285-65.285h298.081c36.057-.001 65.286 29.229 65.286 65.285z" fill="#60d9a7"/></g><g><path d="m256.01 191.182v-11.907h-149.05c-36.056 0-65.285 29.229-65.285 65.285v.001c0 10.844 10.915 18.405 21.002 14.425 16.9-6.669 23.542-20.176 50.446-20.176 35.724 0 35.724 23.814 71.449 23.814 35.719 0 35.719-23.814 71.439-23.814-13.152 0-23.814-10.662-23.814-23.814-.001-13.152 10.661-23.814 23.813-23.814z" fill="#00cd8c"/></g><g><path d="m391.593 46.957h-271.186c-66.499 0-120.407 53.908-120.407 120.408 0 13.154 10.664 23.818 23.818 23.818h464.364c13.154 0 23.818-10.664 23.818-23.818 0-66.5-53.908-120.408-120.407-120.408z" fill="#ffca8a"/></g><g><path d="m359.018 119.07c-17.069 0-30.905-13.837-30.905-30.905v-41.208h61.811v41.207c0 17.069-13.837 30.906-30.906 30.906z" fill="#ffbe73"/></g><g><path d="m103.018 167.365c0-66.499 53.908-120.407 120.407-120.407h-103.018c-66.499-.001-120.407 53.907-120.407 120.407 0 13.154 10.664 23.818 23.818 23.818h103.018c-13.154-.001-23.818-10.664-23.818-23.818z" fill="#ffbe73"/></g><g><path d="m152.982 119.07c-17.069 0-30.905-13.837-30.905-30.905v-41.208h61.811v41.207c-.001 17.069-13.837 30.906-30.906 30.906z" fill="#ffbe73"/></g><g><path d="m183.887 53.608v-6.65h-61.811v41.207c0 3.908.733 7.643 2.056 11.085 14.411-20.967 35.287-37.139 59.755-45.642z" fill="#efa65e"/></g><g><path d="m256 119.07c-17.069 0-30.905-13.837-30.905-30.905v-41.208h61.811v41.207c-.001 17.069-13.837 30.906-30.906 30.906z" fill="#ffbe73"/></g><g><circle cx="391.721" cy="412.357" fill="#ffbe73" r="15.453"/></g><g><circle cx="434.867" cy="141.946" fill="#ffbe73" r="15.453"/></g><g><circle cx="64.408" cy="119.07" fill="#efa65e" r="15.453"/></g><g><circle cx="64.408" cy="417.508" fill="#efa65e" r="10.302"/></g><g><circle cx="333.351" cy="431.672" fill="#ffbe73" r="10.302"/></g><g><circle cx="293.459" cy="144.455" fill="#ffbe73" r="10.302"/></g></g></svg>