<svg id="Layer_1" enable-background="new 0 0 512 512" height="512" viewBox="0 0 512 512" width="512" xmlns="http://www.w3.org/2000/svg"><g><path d="m512 157.695-32.855-81.042-75.961 3.002 53.383 133.473z" fill="#24b383"/><path d="m466.258 44.865-32.069 3.785-16.863 45.148 61.819-17.145z" fill="#2ee66b"/><path d="m448.425.877-62.917 22.819-5.704 40.278 37.522 29.824 48.932-48.933z" fill="#24b383"/><path d="m417.326 93.798-93.584 65.301c32.997 9.802 99.451 20.655 125.502 46.705l7.323 7.323z" fill="#663328"/><path d="m401.746 46.421c-10.848-32.987-52.667-42.948-77.221-18.394l-26.53 26.53 60.656 46.955 58.674-7.714z" fill="#b36b24"/><path d="m417.326 93.798-119.33-39.241 7.323 7.323c26.05 26.05 29.835 71.291 39.637 104.288z" fill="#99481f"/><path d="m305.319 61.88-7.323-7.323-151.248 151.247 212.35-53.778c-9.802-32.998-27.729-64.096-53.779-90.146z" fill="#ffbf80"/><path d="m282.894 386.801 173.673-173.673v-.001l-7.323-7.323c-26.051-26.051-57.15-43.975-90.148-53.777l-183.772 155.488z" fill="#ffbf80"/><path d="m359.096 152.028c-72.81-21.628-154.867-3.704-212.348 53.777l-22.425 22.425 65.144 93.428z" fill="#fd9"/><path d="m203.608 307.515-80.045 51.761-90.722 119.006c43.788 43.788 114.783 43.788 158.571 0l91.481-91.481z" fill="#b9bed9"/><path d="m124.322 228.23-91.481 91.481c-43.788 43.788-43.788 114.783 0 158.571l170.767-170.767z" fill="#e6e6f2"/></g></svg>