<svg id="Layer_3" enable-background="new 0 0 64 64" height="512" viewBox="0 0 64 64" width="512" xmlns="http://www.w3.org/2000/svg"><g><path d="m46 55v-41.667c0-2.164-.702-4.269-2-6l-1.119-1.538h-21.761l-1.12 1.538c-1.298 1.731-2 3.836-2 6v41.667" fill="#c66b60"/><path d="m40.549 10.084c0-1.463-.133-2.894-.375-4.288h-19.054l-1.12 1.537c-1.298 1.731-2 3.836-2 6v21.551c12.65-1.192 22.549-11.838 22.549-24.8z" fill="#e47c6e"/><path d="m18 55h28l-1.171 2.342c-.508 1.016-1.547 1.658-2.683 1.658h-20.292c-1.136 0-2.175-.642-2.683-1.658z" fill="#243242"/><path d="m46.003 16.876c-2.71.733-5.561 1.124-8.503 1.124-7.25 0-13.945-2.374-19.351-6.386.262-1.501.865-2.929 1.771-4.172 5.445 4.116 12.227 6.558 19.58 6.558 2.227 0 4.402-.224 6.503-.651l-.003-.016v3.543z" fill="#243242"/><path d="m21 59v1c0 1.105.895 2 2 2h18c1.105 0 2-.895 2-2v-1" fill="#cbc3b6"/><path d="m42 6h-20c-1.105 0-2-.895-2-2 0-1.105.895-2 2-2h20c1.105 0 2 .895 2 2 0 1.105-.895 2-2 2z" fill="#cbc3b6"/><g fill="#e7e4dd"><path d="m34.999 45h-2v2h2v3h-5.999v-3h2v-2h-2c-1.104 0-2 .897-2 2v3c0 1.103.896 2 2 2h5.999.001c.534 0 1.036-.208 1.413-.585.378-.378.586-.88.586-1.415v-3c0-1.104-.896-2-2-2z"/><path d="m33.999 36h-3.999c-1.654 0-3 1.346-3 3v2c0 1.654 1.346 3 3 3h3.999c1.654 0 3-1.346 3-3v-2c0-1.655-1.346-3-3-3zm1 4.999c0 .552-.448 1-1 1h-3.999c-.552 0-1-.448-1-1v-2c0-.552.448-1 1-1h3.999c.552 0 1 .448 1 1z"/><path d="m34.999 32.999h-7.999v2h8.999c.553 0 1-.447 1-1v-5h-2z"/><path d="m36.472 22h.527v-2h-.527c-3.08 0-6.164.728-8.919 2.105-.339.169-.553.516-.553.895v2c0 .378.214.725.553.894 2.754 1.377 5.838 2.105 8.919 2.105h.527v-2h-.527c-.828 0-1.653-.079-2.473-.194v-3.611c.82-.115 1.645-.194 2.473-.194zm-4.472 3.407c-1.027-.264-2.037-.596-3-1.037v-.74c.963-.441 1.973-.773 3-1.037z"/></g><path d="m39.2 2h-17.2c-1.105 0-2 .895-2 2s.895 2 2 2h18.21c-.227-1.375-.567-2.711-1.01-4z" fill="#d5cec2"/><path d="m39.5 14c-7.353 0-14.135-2.442-19.58-6.558-.906 1.242-1.509 2.671-1.771 4.172 5.406 4.012 12.101 6.386 19.351 6.386.597 0 1.188-.027 1.777-.059.424-1.278.752-2.599.966-3.96-.248.006-.494.019-.743.019z" fill="#4d5d7a"/></g></svg>