<?xml version="1.0" encoding="iso-8859-1"?>
<!-- Generator: Adobe Illustrator 19.0.0, SVG Export Plug-In . SVG Version: 6.00 Build 0)  -->
<svg version="1.1" id="Capa_1" xmlns="http://www.w3.org/2000/svg" xmlns:xlink="http://www.w3.org/1999/xlink" x="0px" y="0px"
	 viewBox="0 0 512 512" style="enable-background:new 0 0 512 512;" xml:space="preserve">
<path style="fill:#FFA733;" d="M256,0C114.615,0,0,114.615,0,256s114.615,256,256,256s256-114.615,256-256S397.385,0,256,0z
	 M256,350.35c-52.109,0-94.35-42.24-94.35-94.35s42.24-94.35,94.35-94.35s94.35,42.24,94.35,94.35S308.109,350.35,256,350.35z"/>
<path style="fill:#EE8700;" d="M141.83,438.796c-47.863-44.415-77.677-106.693-77.677-179.4
	c0-125.727,87.101-231.116,204.253-259.096C264.295,0.104,260.163,0,256,0C114.615,0,0,114.615,0,256s114.615,256,256,256
	c13.783,0,27.308-1.087,40.501-3.189C236.604,501.562,182.652,476.677,141.83,438.796z"/>
<path style="fill:#EA348B;" d="M446.066,177.277c-11.143-26.873-4.329-66.514-24.574-86.769
	c-20.255-20.245-59.897-13.431-86.769-24.574c-25.92-10.749-48.909-43.97-78.723-43.97s-52.803,33.221-78.723,43.97
	c-26.873,11.143-66.514,4.329-86.769,24.574c-20.245,20.255-13.431,59.897-24.574,86.769c-10.749,25.92-43.97,48.909-43.97,78.723
	s33.221,52.803,43.97,78.723c11.143,26.873,4.329,66.514,24.574,86.769c20.255,20.245,59.897,13.431,86.769,24.574
	c25.92,10.749,48.909,43.97,78.723,43.97s52.803-33.221,78.723-43.97c26.873-11.143,66.514-4.329,86.769-24.574
	c20.245-20.255,13.431-59.897,24.574-86.769c10.749-25.92,43.97-48.909,43.97-78.723S456.815,203.197,446.066,177.277z M256,350.35
	c-52.109,0-94.35-42.24-94.35-94.35s42.24-94.35,94.35-94.35s94.35,42.24,94.35,94.35S308.109,350.35,256,350.35z"/>
<path style="fill:#E4187A;" d="M256,129.662c-69.776,0-126.338,56.562-126.338,126.338S186.224,382.338,256,382.338
	S382.338,325.776,382.338,256S325.776,129.662,256,129.662z M256,350.35c-52.109,0-94.35-42.24-94.35-94.35s42.24-94.35,94.35-94.35
	s94.35,42.24,94.35,94.35S308.109,350.35,256,350.35z"/>
<path style="fill:#FFCD00;" d="M359.591,174.047c1.278,0.797,2.698,1.177,4.102,1.177c2.592,0,5.126-1.298,6.598-3.659
	l24.851-39.866c2.269-3.641,1.158-8.432-2.481-10.699c-3.64-2.269-8.432-1.159-10.699,2.481l-24.851,39.866
	C354.84,166.989,355.951,171.779,359.591,174.047z"/>
<path style="fill:#4CBA68;" d="M264.784,112.917c3.82,0,7.151-2.822,7.685-6.712c0.583-4.25-2.391-8.167-6.64-8.749l-46.542-6.38
	c-4.247-0.572-8.167,2.39-8.749,6.64c-0.583,4.25,2.391,8.167,6.64,8.749l46.542,6.38
	C264.077,112.893,264.433,112.917,264.784,112.917z"/>
<path style="fill:#A71159;" d="M122.922,275.57l-46.542-6.38c-4.245-0.575-8.167,2.39-8.749,6.64
	c-0.583,4.25,2.391,8.167,6.64,8.749l46.542,6.38c0.358,0.049,0.712,0.073,1.065,0.073c3.82,0,7.151-2.822,7.685-6.712
	C130.145,280.07,127.172,276.153,122.922,275.57z"/>
<path style="fill:#FFCD00;" d="M124.994,140.435c-4.241-0.643-8.199,2.28-8.835,6.524l-6.991,46.454
	c-0.639,4.242,2.282,8.197,6.524,8.835c0.392,0.06,0.781,0.088,1.166,0.088c3.778,0,7.091-2.762,7.669-6.612l6.991-46.454
	C132.157,145.03,129.235,141.073,124.994,140.435z"/>
<path style="fill:#4CBA68;" d="M297.006,406.159l-37.401-28.426c-3.415-2.596-8.289-1.931-10.883,1.484
	c-2.596,3.415-1.931,8.288,1.484,10.883l37.401,28.426c1.404,1.068,3.055,1.583,4.693,1.583c2.345,0,4.662-1.057,6.19-3.067
	C301.085,413.626,300.42,408.754,297.006,406.159z"/>
<g>
	<path style="fill:#A71159;" d="M447.051,253.823l-46.542-6.38c-4.248-0.574-8.166,2.39-8.749,6.64
		c-0.583,4.25,2.391,8.167,6.64,8.749l46.542,6.38c0.358,0.049,0.712,0.073,1.065,0.073c3.82,0,7.151-2.822,7.685-6.712
		C454.274,258.324,451.301,254.406,447.051,253.823z"/>
	<path style="fill:#A71159;" d="M387.729,334.857l-33.944,32.475c-3.099,2.965-3.209,7.881-0.242,10.981
		c1.525,1.595,3.566,2.397,5.613,2.397c1.93,0,3.863-0.715,5.368-2.155l33.945-32.475c3.099-2.965,3.209-7.881,0.242-10.981
		C395.745,332.001,390.828,331.891,387.729,334.857z"/>
</g>
<path style="fill:#FFCD00;" d="M164.891,351.809c-3.799-1.996-8.494-0.53-10.485,3.27l-21.818,41.603
	c-1.992,3.798-0.528,8.493,3.27,10.485c1.152,0.605,2.385,0.891,3.602,0.891c2.795,0,5.497-1.514,6.883-4.162l21.818-41.603
	C170.153,358.496,168.688,353.801,164.891,351.809z"/>
<path style="fill:#E4187A;" d="M127.808,421.492c-20.245-20.255-13.431-59.897-24.574-86.769
	c-10.749-25.92-43.97-48.909-43.97-78.723s33.221-52.803,43.97-78.723c11.143-26.873,14.684-81.488,34.929-101.743
	c0.59-0.59,1.191-1.212,1.792-1.843c-18.826,2.351-37.508,4.877-49.448,16.817c-20.245,20.255-13.431,59.897-24.574,86.769
	c-10.749,25.92-43.97,48.909-43.97,78.723s33.221,52.803,43.97,78.723c11.143,26.873,4.329,66.514,24.574,86.769
	c12.282,12.271,31.678,14.601,51.043,17.014C136.704,431.713,132.106,425.78,127.808,421.492z"/>
<g>
</g>
<g>
</g>
<g>
</g>
<g>
</g>
<g>
</g>
<g>
</g>
<g>
</g>
<g>
</g>
<g>
</g>
<g>
</g>
<g>
</g>
<g>
</g>
<g>
</g>
<g>
</g>
<g>
</g>
</svg>
