<?xml version="1.0" encoding="iso-8859-1"?>
<!-- Generator: Adobe Illustrator 19.0.0, SVG Export Plug-In . SVG Version: 6.00 Build 0)  -->
<svg version="1.1" id="Capa_1" xmlns="http://www.w3.org/2000/svg" xmlns:xlink="http://www.w3.org/1999/xlink" x="0px" y="0px"
	 viewBox="0 0 468.293 468.293" style="enable-background:new 0 0 468.293 468.293;" xml:space="preserve">
<path style="fill:#F6C358;" d="M393.678,62.688C351.844,23.851,295.774,0,234.146,0C104.835,0,0,104.835,0,234.146
	c0,27.786,4.87,54.447,13.737,79.173c32.406,90.349,118.884,154.973,220.41,154.973c129.311,0,234.146-104.835,234.146-234.146
	C468.293,166.463,439.571,105.46,393.678,62.688z M234.146,302.829c-37.933,0-68.683-30.751-68.683-68.683
	s30.75-68.683,68.683-68.683s68.683,30.751,68.683,68.683S272.079,302.829,234.146,302.829z"/>
<g>
	<path style="fill:#DC8744;" d="M391.867,100.527c-5.744-20.854-3.434-32.031,1.811-37.838
		C347.749,20.049,284.659-4.526,215.895,0.694C103.684,9.213,12.306,98.404,1.182,210.386
		c-3.611,36.353,1.188,71.233,12.555,102.933c25.297-5.928,51.745,29.139,63.488,47.225c6.199,9.547,14.934,17.359,25.426,21.774
		c24.124,10.153,34.655-4.402,38.853-14.324c4.318-10.207,11.019-19.35,19.851-26.045c40.64-30.81,80.223,13.266,80.223,13.266
		c76.176,38.088,74.178-57.569,74.178-57.569c4.87-103.462,57.569-98.591,57.569-98.591
		C436.761,218.599,391.867,100.527,391.867,100.527z M234.146,302.829c-37.933,0-68.683-30.751-68.683-68.683
		s30.75-68.683,68.683-68.683s68.683,30.751,68.683,68.683S272.079,302.829,234.146,302.829z"/>
	<path style="fill:#DC8744;" d="M12.488,240.39c0-129.311,104.835-234.146,234.146-234.146c34.863,0,67.941,7.644,97.676,21.305
		C311.463,10.013,273.981,0,234.146,0C104.835,0,0,104.835,0,234.146c0,27.787,4.87,54.447,13.737,79.174
		c3.428-0.803,6.877-0.823,10.308-0.264C16.589,290.177,12.488,265.762,12.488,240.39z"/>
</g>
<g>
	<path style="fill:#27A2DB;" d="M95.284,147.72c-2.396,0-4.793-0.915-6.622-2.744c-3.659-3.659-3.659-9.588,0-13.244l26.491-26.488
		c3.659-3.659,9.585-3.659,13.244,0c3.659,3.659,3.659,9.588,0,13.244l-26.491,26.488C100.077,146.806,97.681,147.72,95.284,147.72z
		"/>
</g>
<g>
	<path style="fill:#E56353;" d="M317.821,399.543c-2.396,0-4.793-0.915-6.622-2.744c-3.659-3.659-3.659-9.588,0-13.244
		l26.491-26.488c3.659-3.659,9.585-3.659,13.244,0s3.659,9.588,0,13.244l-26.491,26.488
		C322.613,398.629,320.217,399.543,317.821,399.543z"/>
	<path style="fill:#E56353;" d="M208.012,125.11c2.396,0,4.793-0.915,6.622-2.744c3.659-3.659,3.659-9.588,0-13.244l-26.491-26.488
		c-3.659-3.659-9.585-3.659-13.244,0s-3.659,9.588,0,13.244l26.491,26.488C203.219,124.196,205.615,125.11,208.012,125.11z"/>
	<path style="fill:#E56353;" d="M91.751,238.102c2.396,0,4.793-0.915,6.622-2.744c3.659-3.659,3.659-9.588,0-13.244l-26.491-26.488
		c-3.659-3.659-9.585-3.659-13.244,0c-3.659,3.659-3.659,9.588,0,13.244l26.491,26.488
		C86.958,237.187,89.355,238.102,91.751,238.102z"/>
</g>
<g>
	<path style="fill:#44C4A1;" d="M407.361,300.076c2.396,0,4.793-0.915,6.622-2.744c3.659-3.659,3.659-9.588,0-13.244l-26.491-26.488
		c-3.659-3.659-9.585-3.659-13.244,0s-3.659,9.588,0,13.244l26.491,26.488C402.569,299.162,404.965,300.076,407.361,300.076z"/>
</g>
<g>
	<path style="fill:#27A2DB;" d="M221.256,422.153c2.396,0,4.793-0.915,6.622-2.744c3.659-3.659,3.659-9.588,0-13.244l-26.491-26.488
		c-3.659-3.659-9.585-3.659-13.244,0s-3.659,9.588,0,13.244l26.491,26.488C216.463,421.238,218.86,422.153,221.256,422.153z"/>
</g>
<g>
	<path style="fill:#44C4A1;" d="M243.512,88.428c-2.396,0-4.793-0.915-6.622-2.744c-3.659-3.659-3.659-9.588,0-13.244l26.491-26.488
		c3.659-3.659,9.585-3.659,13.244,0s3.659,9.588,0,13.244l-26.491,26.488C248.305,87.513,245.909,88.428,243.512,88.428z"/>
</g>
<g>
	<path style="fill:#27A2DB;" d="M331.065,160.965c-2.396,0-4.793-0.915-6.622-2.744c-3.659-3.659-3.659-9.588,0-13.244
		l26.491-26.488c3.659-3.659,9.585-3.659,13.244,0s3.659,9.588,0,13.244l-26.491,26.488
		C335.857,160.051,333.461,160.965,331.065,160.965z"/>
</g>
<g>
	<path style="fill:#44C4A1;" d="M95.285,313.32c-2.396,0-4.793-0.915-6.622-2.744c-3.659-3.659-3.659-9.588,0-13.244l26.491-26.488
		c3.659-3.659,9.585-3.659,13.244,0s3.659,9.588,0,13.244l-26.491,26.488C100.078,312.405,97.682,313.32,95.285,313.32z"/>
</g>
<g>
</g>
<g>
</g>
<g>
</g>
<g>
</g>
<g>
</g>
<g>
</g>
<g>
</g>
<g>
</g>
<g>
</g>
<g>
</g>
<g>
</g>
<g>
</g>
<g>
</g>
<g>
</g>
<g>
</g>
</svg>
