<svg id="Capa_1" enable-background="new 0 0 497 497" height="512" viewBox="0 0 497 497" width="512" xmlns="http://www.w3.org/2000/svg"><g><g><path d="m49.7 66.267h91.1c2.197 0 4.304.873 5.857 2.426l16.281 16.281 282.221 282.221 49.398 49.398c5.218 5.218 1.522 14.141-5.857 14.141h-91.1z" fill="#f4dbb3"/><path d="m367.085 233.108-32.267-150.578c-1.923-8.971-10.77-14.672-19.734-12.714l-52.23 11.409-7.488 174.142 70.834 70.833z" fill="#ffd97d"/><path d="m334.818 82.53c-1.923-8.971-10.771-14.672-19.734-12.714l-10.456 2.284c3.554 2.303 6.233 5.96 7.191 10.43l31.184 145.524c.704 3.286.356 6.71-.995 9.786l-31.788 72.378 15.98 15.982 40.885-93.092z" fill="#ffc269"/><g><path d="m396.212 396.212c38.498-7.13 67.654-40.883 67.654-81.446 0-45.748-37.086-82.833-82.833-82.833-32.039 0-59.83 18.19-73.608 44.806l13.075 78.827z" fill="#e55964"/><g fill="#db404f"><path d="m381.966 364.458c27.018-.497 48.767-22.555 48.767-49.691 0-27.449-22.251-49.7-49.7-49.7-16.336 0-30.831 7.882-39.891 20.05l-20.643 70.45z"/><path d="m381.033 231.933c-3.925 0-7.785.277-11.564.805 40.332 5.573 71.397 40.163 71.397 82.029 0 35.098-21.837 65.083-52.66 77.148l8.005 4.298c38.498-7.13 67.654-40.883 67.654-81.446.002-45.748-37.084-82.834-82.832-82.834z"/></g></g><path d="m364.467 430.733h66.266l-364.466-364.466h-66.267l222.282 364.466z" fill="#eac89f"/><g><path d="m280.531 200.243c11.068-14.083 17.669-31.842 17.669-51.143 0-45.748-37.086-82.833-82.833-82.833-29.697 0-55.745 15.628-70.366 39.109l72.699 112.324z" fill="#e55964"/><g fill="#db404f"><path d="m179.497 114.699c9.045-9.429 21.772-15.299 35.87-15.299 27.449 0 49.7 22.252 49.7 49.7 0 9.806-2.84 18.949-7.743 26.651l-39.624 41.949-38.203-93.467z"/><path d="m215.367 66.267c-3.92 0-7.774.28-11.549.807 40.325 5.579 71.382 40.166 71.382 82.026 0 19.301-6.601 37.06-17.669 51.143l-43.336 12.041 3.506 5.416 62.831-17.457c11.067-14.083 17.668-31.842 17.668-51.143 0-45.747-37.086-82.833-82.833-82.833z"/></g></g><path d="m364.467 430.733h-347.9c-9.15 0-16.567-7.417-16.567-16.566v-347.9z" fill="#f4dbb3"/><g><g><path d="m115.967 405.099h-66.267c-4.142 0-7.5-3.357-7.5-7.5 0-4.142 3.358-7.5 7.5-7.5h66.267c4.142 0 7.5 3.358 7.5 7.5 0 4.143-3.358 7.5-7.5 7.5z" fill="#eac89f"/></g></g><g><g><path d="m66.267 272.566c-4.142 0-7.5-3.357-7.5-7.5 0-4.999-4.067-9.066-9.066-9.066-5 0-9.067 4.067-9.067 9.066 0 4.143-3.358 7.5-7.5 7.5s-7.5-3.357-7.5-7.5c-.001-13.27 10.796-24.066 24.066-24.066s24.066 10.796 24.066 24.066c.001 4.143-3.357 7.5-7.499 7.5z" fill="#eac89f"/></g></g><g><g><path d="m66.267 355.4c-4.142 0-7.5-3.357-7.5-7.5 0-5-4.067-9.067-9.066-9.067-5 0-9.067 4.067-9.067 9.067 0 4.143-3.358 7.5-7.5 7.5s-7.5-3.357-7.5-7.5c0-13.271 10.796-24.067 24.067-24.067s24.066 10.797 24.066 24.067c0 4.143-3.358 7.5-7.5 7.5z" fill="#eac89f"/></g></g><g><g><path d="m132.533 313.983c-4.142 0-7.5-3.357-7.5-7.5 0-4.999-4.067-9.066-9.066-9.066s-9.067 4.067-9.067 9.066c0 4.143-3.358 7.5-7.5 7.5s-7.5-3.357-7.5-7.5c0-13.271 10.796-24.066 24.067-24.066s24.066 10.796 24.066 24.066c0 4.143-3.358 7.5-7.5 7.5z" fill="#eac89f"/></g></g><path d="m372.456 372.455c15.959-8.953 21.639-29.148 12.686-45.108-7.072-12.606-21.157-18.79-34.63-16.424.505-6.326-.797-12.865-4.135-18.816-8.953-15.959-29.148-21.639-45.108-12.686-4.721 2.648-8.542 6.281-11.351 10.496z" fill="#b3e59f"/><path d="m262.949 262.949c13.102 1.135 26.179-5.644 32.459-18.106 8.236-16.341 1.665-36.264-14.676-44.5-6.093-3.071-12.684-4.081-18.981-3.295 1.766-13.564-5.037-27.361-17.945-33.867-6.093-3.071-12.684-4.081-18.981-3.296 1.766-13.564-5.038-27.361-17.945-33.866-6.999-3.528-14.654-4.331-21.768-2.822-3.018-6.616-8.218-12.291-15.217-15.818-16.341-8.236-36.264-1.665-44.5 14.676-.382.758-.732 1.524-1.051 2.296z" fill="#b3e59f"/><g fill="#8ad689"><path d="m280.733 200.344c-6.093-3.071-12.684-4.081-18.981-3.295 1.766-13.564-5.037-27.361-17.945-33.867-6.093-3.071-12.684-4.081-18.981-3.296 1.766-13.564-5.038-27.361-17.945-33.867-6.999-3.527-14.654-4.331-21.768-2.821-3.018-6.616-8.218-12.291-15.217-15.819-8.551-4.31-18.082-4.558-26.407-1.48 1.149.427 2.287.915 3.407 1.48 6.999 3.528 12.199 9.202 15.217 15.819 7.114-1.509 14.769-.706 21.768 2.821 12.908 6.505 19.711 20.302 17.945 33.867 6.297-.785 12.888.225 18.981 3.296 12.908 6.505 19.711 20.302 17.945 33.867 6.298-.785 12.888.225 18.981 3.295 16.341 8.236 22.912 28.159 14.676 44.5-3.11 6.17-7.889 10.942-13.51 14.055l4.051 4.05c13.102 1.135 26.179-5.644 32.459-18.106 8.235-16.34 1.665-36.264-14.676-44.499z"/><path d="m385.142 327.347c-7.072-12.606-21.157-18.79-34.63-16.424.505-6.326-.797-12.865-4.135-18.816-8.131-14.495-25.536-20.507-40.618-14.782 7.042 2.655 13.225 7.705 17.195 14.782 3.338 5.951 4.64 12.49 4.135 18.816 13.472-2.367 27.558 3.818 34.63 16.424 6.105 10.883 5.401 23.734-.723 33.648l11.46 11.46c15.959-8.953 21.639-29.149 12.686-45.108z"/></g></g></g></svg>